<svg width="235" height="130" viewBox="0 0 235 130" fill="none" xmlns="http://www.w3.org/2000/svg">
  <g clip-path="url(#clip0_383_746)">
    <rect width="235" height="130" fill="white" />
    <rect width="235" height="130" fill="#D9D9D9" />
    <g clip-path="url(#clip1_383_746)" filter="url(#filter0_d_383_746)">
      <path d="M160.858 38.0127V115H77.3342V15.0004H137.846L148.565 25.7189L160.858 38.0127Z" fill="#B12A27" />
      <path d="M115.2 21.6982H75.1416V39.6217H115.2V21.6982Z" fill="#F2F2F2" />
      <path d="M89.5102 27.5742C89.3334 27.1472 89.0979 26.7644 88.7741 26.4406C88.4502 26.1167 88.0526 25.8517 87.5961 25.675C87.125 25.4835 86.595 25.3953 86.0061 25.3953H81.6038V36.7615H83.827V32.4769H86.0061C86.595 32.4769 87.125 32.3886 87.5961 32.1972C88.0526 32.0205 88.45 31.7556 88.7741 31.4316C89.0981 31.1078 89.3336 30.7396 89.5102 30.298C89.6721 29.871 89.7606 29.4146 89.7606 28.9435C89.7604 28.4576 89.6721 28.0011 89.5102 27.5742ZM87.1102 30.0623C86.8157 30.3419 86.4036 30.4892 85.903 30.4892H83.827V27.3679H85.903C86.4036 27.3679 86.8159 27.5152 87.1102 27.8095C87.3899 28.0892 87.5372 28.472 87.5372 28.9431C87.5374 29.3998 87.3901 29.7826 87.1102 30.0623Z" fill="#B12A27" />
      <path d="M100.14 29.797C100.126 29.3996 100.111 29.0463 100.067 28.7222C100.022 28.3982 99.9488 28.1039 99.8457 27.8242C99.7425 27.5592 99.6101 27.2941 99.4333 27.0586C99.0359 26.4844 98.55 26.0574 98.0052 25.7924C97.4457 25.5273 96.7832 25.3949 96.0029 25.3949H91.9099V36.7611H96.0029C96.7832 36.7611 97.4457 36.6287 98.0052 36.3636C98.55 36.0986 99.0359 35.6717 99.4333 35.0974C99.6101 34.8619 99.7425 34.5968 99.8457 34.3318C99.9488 34.0521 100.022 33.7576 100.067 33.4338C100.111 33.1099 100.125 32.7564 100.14 32.359C100.155 31.9761 100.155 31.5492 100.155 31.0781C100.155 30.607 100.155 30.1799 100.14 29.797ZM97.9169 32.2265C97.9169 32.5652 97.8875 32.8302 97.858 33.0658C97.8285 33.2867 97.7843 33.4927 97.7255 33.64C97.6668 33.8019 97.5783 33.9492 97.4753 34.0816C97.1072 34.5527 96.5478 34.7736 95.8117 34.7736H94.1185V27.3677H95.8117C96.5478 27.3677 97.1074 27.6033 97.4753 28.0744C97.5785 28.2068 97.6668 28.3394 97.7255 28.5013C97.7843 28.6633 97.8287 28.8547 97.858 29.0902C97.8875 29.3111 97.9169 29.5908 97.9169 29.9146C97.9316 30.2386 97.9316 30.6361 97.9316 31.0777C97.9318 31.5197 97.9318 31.9025 97.9169 32.2265Z" fill="#B12A27" />
      <path d="M109.637 27.3677V25.3949H102.143V36.7611H104.366V32.1529H108.856V30.1652H104.366V27.3677H109.637Z" fill="#B12A27" />
      <path d="M89.5102 27.5742C89.3334 27.1472 89.0979 26.7644 88.7741 26.4406C88.4502 26.1167 88.0526 25.8517 87.5961 25.675C87.125 25.4835 86.595 25.3953 86.0061 25.3953H81.6038V36.7615H83.827V32.4769H86.0061C86.595 32.4769 87.125 32.3886 87.5961 32.1972C88.0526 32.0205 88.45 31.7556 88.7741 31.4316C89.0981 31.1078 89.3336 30.7396 89.5102 30.298C89.6721 29.871 89.7606 29.4146 89.7606 28.9435C89.7604 28.4576 89.6721 28.0011 89.5102 27.5742ZM87.1102 30.0623C86.8157 30.3419 86.4036 30.4892 85.903 30.4892H83.827V27.3679H85.903C86.4036 27.3679 86.8159 27.5152 87.1102 27.8095C87.3899 28.0892 87.5372 28.472 87.5372 28.9431C87.5374 29.3998 87.3901 29.7826 87.1102 30.0623Z" fill="#B12A27" />
      <path opacity="0.08" d="M160.858 38.0127V115H77.3342V96.9495L116.38 57.9038L118.691 55.5922L119.972 54.3112L122.107 52.1764L124.64 49.644L148.565 25.719L160.858 38.0127Z" fill="#040000" />
      <path d="M160.858 38.0148H137.844V15L160.858 38.0148Z" fill="#771B1B" />
      <path d="M148.933 87.3941C148.447 86.5402 147.784 85.7304 146.96 84.9943C146.283 84.3759 145.488 83.8017 144.589 83.2716C140.968 81.1369 135.8 80.1062 128.777 80.1062H128.07C127.687 79.7529 127.29 79.3996 126.877 79.0314C124.213 76.6316 122.093 74.0255 120.443 71.1251C123.683 63.9843 125.228 57.624 125.037 52.2058C125.008 51.2929 124.875 50.439 124.64 49.6439C124.286 48.363 123.697 47.2292 122.873 46.3017C122.858 46.2871 122.858 46.2871 122.843 46.2722C121.533 44.7999 119.707 43.9607 117.852 43.9607C115.982 43.9607 114.26 44.7705 113.008 46.2576C111.771 47.7298 111.109 49.747 111.079 52.1173C111.035 55.7392 111.33 59.1697 111.948 62.3351C112.007 62.5855 112.051 62.8357 112.11 63.0859C112.728 65.957 113.641 68.6806 114.819 71.213C113.435 74.0251 112.036 76.4544 111.065 78.1035C110.328 79.355 109.519 80.6654 108.679 81.9757C104.896 82.6531 101.686 83.4775 98.8886 84.5082C95.1048 85.8775 92.0718 87.6441 89.8927 89.7496C88.4792 91.104 87.5222 92.547 87.0511 94.0488C86.5505 95.5947 86.58 97.1406 87.1394 98.5246C87.6546 99.8054 88.5822 100.88 89.8191 101.616C90.1136 101.793 90.4228 101.94 90.7466 102.073C91.689 102.456 92.7195 102.662 93.7943 102.662C96.2825 102.662 98.8443 101.587 101.009 99.6582C105.043 96.0509 109.209 90.2501 111.668 86.5839C113.685 86.2748 115.879 86.0097 118.352 85.7447C121.268 85.4501 123.844 85.2736 126.185 85.1851C126.907 85.833 127.599 86.4513 128.261 87.0402C131.942 90.3234 134.739 92.6939 137.272 94.3576C137.272 94.3722 137.286 94.3722 137.301 94.3722C138.302 95.0347 139.26 95.5794 140.217 96.0212C141.291 96.5218 142.381 96.7869 143.5 96.7869C144.913 96.7869 146.238 96.3599 147.343 95.5796C148.461 94.7699 149.271 93.6068 149.639 92.2964C150.066 90.7214 149.816 88.9695 148.933 87.3941ZM116.38 57.9037C116.174 56.0779 116.085 54.1787 116.115 52.1763C116.144 50.2771 116.836 48.996 117.852 48.996C118.618 48.996 119.427 49.688 119.795 51.013C119.899 51.4105 119.972 51.8669 119.987 52.3822C120.016 53.0005 120.001 53.6484 119.972 54.3109C119.884 56.1808 119.56 58.1683 119.001 60.3033C118.662 61.6726 118.22 63.1007 117.676 64.5876C117.057 62.4972 116.615 60.274 116.38 57.9037ZM91.8216 96.6548C91.5712 96.0365 91.8511 94.8439 93.3824 93.3716C95.7234 91.1337 99.3894 89.3669 104.498 88.0271C103.527 89.3521 102.57 90.5595 101.642 91.6636C100.229 93.3714 98.8742 94.8144 97.6521 95.9039C96.6068 96.846 95.4583 97.4351 94.3689 97.5824C94.1775 97.6119 93.9861 97.6265 93.7947 97.6265C92.8374 97.6267 92.0572 97.2439 91.8216 96.6548ZM115.349 81.0042L115.452 80.8423L115.29 80.8718C115.32 80.7982 115.364 80.7246 115.408 80.6658C116.026 79.6205 116.807 78.2806 117.646 76.7347L117.72 76.8966L117.911 76.4992C118.529 77.3826 119.207 78.2513 119.913 79.0904C120.252 79.4878 120.605 79.8707 120.959 80.2535L120.723 80.2681L120.929 80.4595C120.326 80.5037 119.693 80.5626 119.059 80.6214C118.662 80.6656 118.25 80.6951 117.837 80.7392C116.984 80.8275 116.144 80.916 115.349 81.0042ZM140.128 90.1914C138.376 89.0724 136.418 87.497 134.003 85.3916C137.434 85.7449 140.128 86.4958 142.042 87.6148C142.882 88.1007 143.515 88.6013 143.942 89.0871C144.648 89.8378 144.899 90.5152 144.766 90.9716C144.648 91.4281 144.133 91.7373 143.5 91.7373C143.132 91.7373 142.749 91.649 142.351 91.4576C141.674 91.1337 140.967 90.7361 140.217 90.2503C140.187 90.2503 140.158 90.2209 140.128 90.1914Z" fill="#F2F2F2" />
    </g>
  </g>
  <defs>
    <filter id="filter0_d_383_746" x="75" y="15" width="94" height="108" filterUnits="userSpaceOnUse" color-interpolation-filters="sRGB">
      <feFlood flood-opacity="0" result="BackgroundImageFix" />
      <feColorMatrix in="SourceAlpha" type="matrix" values="0 0 0 0 0 0 0 0 0 0 0 0 0 0 0 0 0 0 127 0" result="hardAlpha" />
      <feOffset dx="4" dy="4" />
      <feGaussianBlur stdDeviation="2" />
      <feComposite in2="hardAlpha" operator="out" />
      <feColorMatrix type="matrix" values="0 0 0 0 0 0 0 0 0 0 0 0 0 0 0 0 0 0 0.25 0" />
      <feBlend mode="normal" in2="BackgroundImageFix" result="effect1_dropShadow_383_746" />
      <feBlend mode="normal" in="SourceGraphic" in2="effect1_dropShadow_383_746" result="shape" />
    </filter>
    <clipPath id="clip0_383_746">
      <rect width="235" height="130" fill="white" />
    </clipPath>
    <clipPath id="clip1_383_746">
      <rect width="86" height="100" fill="white" transform="translate(75 15)" />
    </clipPath>
  </defs>
</svg>