<svg width="344" height="526" viewBox="0 0 344 526" fill="none" xmlns="http://www.w3.org/2000/svg">
<g clip-path="url(#clip0_9_1089)" filter="url(#filter0_d_9_1089)">
<path d="M279.297 241.225C276.883 241.22 274.911 239.237 274.916 236.818L274.986 204.084C274.991 201.666 276.971 199.691 279.386 199.696C281.801 199.701 283.772 201.684 283.767 204.103L283.698 236.837C283.693 239.256 281.712 241.23 279.297 241.225Z" fill="#080A06"/>
<path d="M250.345 506.129H98.5287C82.9176 506.095 70.172 493.274 70.2057 477.638L70.8986 152.258C70.9324 136.622 83.7329 123.856 99.3441 123.89L251.164 124.216C266.775 124.25 279.521 137.071 279.487 152.707L278.792 477.76C278.758 493.396 265.958 506.162 250.345 506.129Z" fill="#131A29"/>
<path d="M248.696 495.874L100.223 495.881C89.4228 495.858 80.6052 486.988 80.6277 476.171L81.3107 155.273C81.3344 144.455 90.1894 135.624 100.99 135.646L249.466 135.965C260.266 135.989 269.084 144.858 269.062 155.676L268.375 476.247C268.352 487.065 259.496 495.896 248.696 495.874Z" fill="#0B0D14" stroke="#0B0D14" stroke-miterlimit="10"/>
<path d="M248.696 495.874L100.223 495.881C89.4228 495.858 80.6052 486.988 80.6277 476.171L81.3107 155.273C81.3344 144.455 90.1894 135.624 100.99 135.646L249.466 135.965C260.266 135.989 269.084 144.858 269.062 155.676L268.375 476.247C268.352 487.065 259.496 495.896 248.696 495.874Z" fill="#001462"/>
<mask id="mask0_9_1089" style="mask-type:luminance" maskUnits="userSpaceOnUse" x="80" y="135" width="190" height="361">
<path d="M248.696 495.874L100.223 495.881C89.4228 495.858 80.6052 486.988 80.6277 476.171L81.3107 155.273C81.3344 144.455 90.1894 135.624 100.99 135.646L249.466 135.965C260.266 135.989 269.084 144.858 269.062 155.676L268.375 476.247C268.352 487.065 259.496 495.896 248.696 495.874Z" fill="white"/>
</mask>
<g mask="url(#mask0_9_1089)">
<path d="M289.887 360.251H43.9003V502.89H289.887V360.251Z" fill="#0643DD"/>
</g>
<mask id="mask1_9_1089" style="mask-type:luminance" maskUnits="userSpaceOnUse" x="80" y="135" width="190" height="361">
<path d="M248.696 495.874L100.223 495.881C89.4228 495.858 80.6052 486.988 80.6277 476.171L81.3107 155.273C81.3344 144.455 90.1894 135.624 100.99 135.646L249.466 135.965C260.266 135.989 269.084 144.858 269.062 155.676L268.375 476.247C268.352 487.065 259.496 495.896 248.696 495.874Z" fill="white"/>
</mask>
<g mask="url(#mask1_9_1089)">
<path d="M187.421 379.844L106.387 377.981C99.4465 377.821 93.7679 383.448 93.7679 390.485C93.7679 393.98 95.1713 397.192 97.4337 399.558L97.43 399.557V409.402L103.689 403.201C104.559 403.415 105.461 403.546 106.387 403.567L187.421 405.429C194.362 405.589 200.041 399.963 200.041 392.926C200.039 385.89 194.361 380.002 187.421 379.844Z" fill="#062CC4"/>
</g>
<mask id="mask2_9_1089" style="mask-type:luminance" maskUnits="userSpaceOnUse" x="80" y="135" width="190" height="361">
<path d="M248.696 495.874L100.223 495.881C89.4228 495.858 80.6052 486.988 80.6277 476.171L81.3107 155.273C81.3344 144.455 90.1894 135.624 100.99 135.646L249.466 135.965C260.266 135.989 269.084 144.858 269.062 155.676L268.375 476.247C268.352 487.065 259.496 495.896 248.696 495.874Z" fill="white"/>
</mask>
<g mask="url(#mask2_9_1089)">
<path d="M210.556 445.643L108.897 443.137C101.989 442.967 96.3375 448.584 96.3375 455.62C96.3375 459.115 97.7347 462.328 99.9859 464.699L99.9821 464.698V474.544L106.211 468.352C107.078 468.569 107.976 468.7 108.897 468.722L210.556 471.229C217.465 471.399 223.116 465.781 223.116 458.745C223.116 451.71 217.463 445.813 210.556 445.643Z" fill="#062CC4"/>
</g>
<mask id="mask3_9_1089" style="mask-type:luminance" maskUnits="userSpaceOnUse" x="80" y="135" width="190" height="361">
<path d="M248.696 495.874L100.223 495.881C89.4228 495.858 80.6052 486.988 80.6277 476.171L81.3107 155.273C81.3344 144.455 90.1894 135.624 100.99 135.646L249.466 135.965C260.266 135.989 269.084 144.858 269.062 155.676L268.375 476.247C268.352 487.065 259.496 495.896 248.696 495.874Z" fill="white"/>
</mask>
<g mask="url(#mask3_9_1089)">
<path d="M207.25 410.515L247.923 408.711C254.773 408.407 260.376 413.914 260.376 420.951C260.376 424.447 258.99 427.687 256.758 430.101L256.762 430.099V439.945L250.585 433.875C249.726 434.108 248.836 434.256 247.922 434.298L207.249 436.102C200.399 436.406 194.795 430.899 194.795 423.862C194.796 416.825 200.4 410.819 207.25 410.515Z" fill="#062CC4"/>
</g>
<mask id="mask4_9_1089" style="mask-type:luminance" maskUnits="userSpaceOnUse" x="80" y="135" width="190" height="361">
<path d="M248.696 495.874L100.223 495.881C89.4228 495.858 80.6052 486.988 80.6277 476.171L81.3107 155.273C81.3344 144.455 90.1894 135.624 100.99 135.646L249.466 135.965C260.266 135.989 269.084 144.858 269.062 155.676L268.375 476.247C268.352 487.065 259.496 495.896 248.696 495.874Z" fill="white"/>
</mask>
<g mask="url(#mask4_9_1089)">
<path d="M289.887 332.198H43.9003V360.25H289.887V332.198Z" fill="#061DAB"/>
</g>
<mask id="mask5_9_1089" style="mask-type:luminance" maskUnits="userSpaceOnUse" x="206" y="183" width="190" height="361">
<path d="M227.265 183.492L375.737 183.484C386.538 183.508 395.355 192.377 395.333 203.194L394.65 524.092C394.626 534.91 385.771 543.742 374.971 543.719L226.494 543.4C215.694 543.376 206.876 534.507 206.899 523.69L207.586 203.118C207.608 192.301 216.464 183.469 227.265 183.492Z" fill="white"/>
</mask>
<g mask="url(#mask5_9_1089)">
<path d="M213.61 342.866L262.349 342.866L262.349 336.501L213.61 336.501L213.61 342.866Z" fill="#066DFF"/>
</g>
<mask id="mask6_9_1089" style="mask-type:luminance" maskUnits="userSpaceOnUse" x="139" y="183" width="189" height="361">
<path d="M159.889 183.492L308.362 183.484C319.162 183.508 327.98 192.377 327.957 203.194L327.274 524.092C327.25 534.91 318.395 543.742 307.595 543.719L159.119 543.4C148.318 543.376 139.501 534.507 139.523 523.69L140.21 203.118C140.232 192.301 149.089 183.469 159.889 183.492Z" fill="white"/>
</mask>
<g mask="url(#mask6_9_1089)">
<path d="M201.332 342.866L207.252 342.866L207.252 336.501L201.332 336.501L201.332 342.866Z" fill="#066DFF"/>
</g>
<mask id="mask7_9_1089" style="mask-type:luminance" maskUnits="userSpaceOnUse" x="120" y="183" width="189" height="361">
<path d="M140.6 183.492L289.073 183.484C299.873 183.508 308.691 192.377 308.668 203.194L307.985 524.092C307.961 534.91 299.106 543.742 288.306 543.719L139.83 543.4C129.029 543.376 120.212 534.507 120.234 523.69L120.921 203.118C120.943 192.301 129.8 183.469 140.6 183.492Z" fill="white"/>
</mask>
<g mask="url(#mask7_9_1089)">
<path d="M191.689 342.866L197.608 342.866L197.608 336.501L191.689 336.501L191.689 342.866Z" fill="#066DFF"/>
</g>
<mask id="mask8_9_1089" style="mask-type:luminance" maskUnits="userSpaceOnUse" x="202" y="200" width="189" height="361">
<path d="M222.588 200.169L371.061 200.161C381.861 200.185 390.679 209.054 390.657 219.872L389.974 540.77C389.95 551.587 381.095 560.419 370.294 560.396L221.818 560.078C211.018 560.054 202.2 551.185 202.223 540.367L202.909 219.796C202.932 208.978 211.788 200.146 222.588 200.169Z" fill="white"/>
</mask>
<g mask="url(#mask8_9_1089)">
<path d="M208.367 349.612L262.917 349.612L262.917 346.429L208.367 346.429L208.367 349.612Z" fill="#066DFF"/>
</g>
<mask id="mask9_9_1089" style="mask-type:luminance" maskUnits="userSpaceOnUse" x="189" y="212" width="190" height="361">
<path d="M210.239 212.431L358.711 212.424C369.512 212.448 378.329 221.317 378.307 232.134L377.624 553.032C377.6 563.85 368.745 572.681 357.945 572.659L209.468 572.34C198.668 572.316 189.851 563.447 189.873 552.63L190.56 232.058C190.582 221.24 199.439 212.409 210.239 212.431Z" fill="white"/>
</mask>
<g mask="url(#mask9_9_1089)">
<path d="M196.017 355.744L262.917 355.744L262.917 352.562L196.017 352.562L196.017 355.744Z" fill="#066DFF"/>
</g>
<mask id="mask10_9_1089" style="mask-type:luminance" maskUnits="userSpaceOnUse" x="80" y="135" width="190" height="361">
<path d="M248.696 495.874L100.223 495.881C89.4228 495.858 80.6052 486.988 80.6277 476.171L81.3107 155.273C81.3344 144.455 90.1894 135.624 100.99 135.646L249.466 135.965C260.266 135.989 269.084 144.858 269.062 155.676L268.375 476.247C268.352 487.065 259.496 495.896 248.696 495.874Z" fill="white"/>
</mask>
<g mask="url(#mask10_9_1089)">
<path d="M289.887 360.251H43.9003V361.257H289.887V360.251Z" fill="#0680FF"/>
</g>
<g opacity="0.19">
<path d="M263.056 311.243L90.2543 483.578C91.905 486.319 95.4397 487.783 99.0981 487.79L117.161 487.829L262.988 342.395L263.056 311.243Z" fill="white"/>
<path d="M86.375 439.785L263.158 263.478L263.332 182.586C263.335 180.676 262.995 178.846 262.394 177.134L86.561 352.493L86.375 439.785Z" fill="white"/>
<path d="M262.892 387.406L262.917 375.899L152.573 485.945L164.062 485.969L262.892 387.406Z" fill="white"/>
</g>
<path d="M194.772 478.172L154.22 478.085C154.216 478.085 154.212 478.085 154.209 478.085C152.955 478.085 151.774 478.576 150.881 479.465C149.986 480.358 149.491 481.543 149.489 482.803C149.486 484.063 149.976 485.25 150.867 486.147C151.758 487.043 152.941 487.539 154.199 487.541L194.75 487.627C194.754 487.627 194.759 487.627 194.763 487.627C196.016 487.627 197.196 487.137 198.089 486.247C198.984 485.354 199.479 484.17 199.481 482.908C199.485 480.303 197.374 478.178 194.772 478.172Z" fill="#062CC1"/>
<path d="M194.754 485.752L154.202 485.664C152.637 485.66 151.358 484.375 151.362 482.806C151.365 481.238 152.649 479.958 154.215 479.961L194.767 480.049C196.332 480.053 197.611 481.338 197.607 482.906C197.605 484.473 196.321 485.754 194.754 485.752Z" fill="#D4F0FF"/>
<path d="M154.215 480.467L194.767 480.554C196.246 480.558 197.455 481.71 197.582 483.159C197.59 483.074 197.608 482.993 197.608 482.906C197.612 481.338 196.333 480.051 194.768 480.049L154.216 479.961C152.65 479.958 151.365 481.238 151.363 482.806C151.363 482.893 151.38 482.975 151.388 483.059C151.522 481.61 152.735 480.463 154.215 480.467Z" fill="white"/>
<path d="M120.6 135.688L120.584 143.165C120.571 149.256 125.536 154.251 131.618 154.264L218.758 154.451C224.84 154.464 229.827 149.492 229.839 143.4L229.856 135.923L120.6 135.688Z" fill="#131A29"/>
<path opacity="0.25" d="M251.581 135.969L98.8746 135.641C89.238 135.62 81.3356 143.501 81.3157 153.153L81.3144 153.79C81.3356 144.138 89.2367 136.257 98.8734 136.278L251.58 136.605C261.217 136.627 269.085 144.54 269.064 154.192L269.065 153.556C269.086 143.905 261.219 135.99 251.581 135.969Z" fill="white"/>
<path d="M181.946 148.405L136.359 148.307C134.626 148.303 133.211 146.774 133.215 144.908C133.218 143.042 134.639 141.519 136.372 141.523L181.96 141.62C183.693 141.624 185.107 143.154 185.104 145.019C185.1 146.885 183.679 148.409 181.946 148.405Z" fill="#13344C"/>
<path d="M181.947 147.932L136.36 147.835C134.627 147.831 133.212 146.408 133.216 144.672C133.22 142.936 134.641 141.519 136.374 141.523L181.961 141.62C183.694 141.624 185.109 143.047 185.105 144.783C185.101 146.519 183.68 147.936 181.947 147.932Z" fill="#131013"/>
<path d="M210.828 145.158C210.822 147.895 208.603 150.108 205.872 150.102C203.14 150.096 200.93 147.873 200.936 145.137C200.942 142.401 203.161 140.187 205.893 140.193C208.625 140.2 210.835 142.422 210.828 145.158Z" fill="#1B5962"/>
<path d="M209.77 145.156C209.765 147.307 208.02 149.046 205.873 149.041C203.725 149.036 201.988 147.289 201.993 145.138C201.998 142.987 203.743 141.248 205.889 141.253C208.038 141.258 209.775 143.005 209.77 145.156Z" fill="#131A29"/>
<path d="M209.084 145.154C209.08 146.927 207.643 148.36 205.874 148.356C204.105 148.352 202.675 146.913 202.679 145.141C202.683 143.369 204.12 141.937 205.888 141.94C207.657 141.944 209.088 143.382 209.084 145.154Z" fill="#131210"/>
<path opacity="0.13" d="M203.95 145.31C204.986 145.31 205.825 144.469 205.825 143.431C205.825 142.394 204.986 141.553 203.95 141.553C202.914 141.553 202.075 142.394 202.075 143.431C202.075 144.469 202.914 145.31 203.95 145.31Z" fill="white"/>
<path opacity="0.13" d="M208.043 144.335C208.042 144.854 207.621 145.273 207.103 145.272C206.584 145.271 206.166 144.849 206.167 144.33C206.169 143.811 206.589 143.392 207.106 143.394C207.626 143.395 208.044 143.816 208.043 144.335Z" fill="white"/>
<path opacity="0.13" d="M206.435 145.93C206.433 146.27 206.159 146.545 205.819 146.544C205.479 146.543 205.205 146.268 205.206 145.927C205.207 145.587 205.482 145.312 205.822 145.313C206.16 145.313 206.435 145.59 206.435 145.93Z" fill="white"/>
<path opacity="0.6" d="M174.844 53.2781C247.553 53.2781 306.687 111.48 308.346 183.905C308.37 182.866 308.386 181.824 308.386 180.779C308.386 106.908 248.597 47.0251 174.845 47.0251C101.093 47.0251 41.3033 106.908 41.3033 180.779C41.3033 181.824 41.3195 182.866 41.3432 183.905C43.0026 111.48 102.136 53.2781 174.844 53.2781Z" fill="white"/>
<path opacity="0.2" d="M308.386 187.032C308.386 113.161 248.597 53.2781 174.845 53.2781C101.093 53.2781 41.3045 113.162 41.3045 187.032C41.3045 252.912 88.8609 307.666 151.465 318.739L174.845 345.358L198.225 318.739C260.828 307.666 308.386 252.912 308.386 187.032Z" fill="white"/>
<path opacity="0.3" d="M174.844 54.1872C248.445 54.1872 308.134 113.826 308.38 187.487C308.38 187.335 308.386 187.184 308.386 187.033C308.386 113.162 248.597 53.2793 174.845 53.2793C101.093 53.2793 41.3045 113.163 41.3045 187.033C41.3045 187.184 41.3095 187.335 41.3107 187.487C41.5542 113.825 101.243 54.1872 174.844 54.1872Z" fill="white"/>
<path opacity="0.3" d="M174.844 307.12C241.061 307.12 294.741 253.354 294.741 187.031C294.741 120.708 241.061 66.9431 174.844 66.9431C108.627 66.9431 54.9466 120.708 54.9466 187.031C54.9466 253.354 108.627 307.12 174.844 307.12Z" fill="white"/>
<path opacity="0.3" d="M174.844 305.757C108.853 305.757 55.3225 252.358 54.9554 186.35C54.9541 186.578 54.9466 186.804 54.9466 187.032C54.9466 253.355 108.626 307.12 174.844 307.12C241.062 307.12 294.741 253.355 294.741 187.032C294.741 186.804 294.734 186.578 294.733 186.35C294.367 252.358 240.835 305.757 174.844 305.757Z" fill="white"/>
<g opacity="0.3">
<path d="M300.153 134.448C298.989 131.291 297.707 128.19 296.317 125.15V131.418C297.708 134.461 298.989 137.565 300.153 140.726V134.448Z" fill="white"/>
<path d="M234.101 67.1433C237.48 68.8215 240.776 70.6386 243.985 72.5883V66.3266C240.777 64.3782 237.477 62.5699 234.101 60.8916V67.1433Z" fill="white"/>
<path d="M278.945 103.254V97.0096C273.068 89.6925 266.442 83.0081 259.176 77.0741V83.3258C266.441 89.2585 273.071 95.9391 278.945 103.254Z" fill="white"/>
<path d="M70.2057 97.68V103.939C81.0285 90.2828 94.4571 78.795 109.742 70.2297V63.9806C94.4583 72.5446 81.0285 84.0262 70.2057 97.68Z" fill="white"/>
<path d="M162.995 47.5554C161.711 47.668 160.431 47.7993 159.159 47.9481V54.1998C160.433 54.0509 161.711 53.9209 162.995 53.8071V47.5554Z" fill="white"/>
<path d="M142.689 50.9382C135.879 52.624 129.273 54.825 122.92 57.5125V63.7717C129.274 61.083 135.878 58.8744 142.689 57.1874V50.9382Z" fill="white"/>
</g>
<path d="M188.56 377.691H106.54C99.5151 377.691 93.7666 383.448 93.7666 390.485C93.7666 393.98 95.1875 397.159 97.4774 399.474L97.4737 399.473V409.319L103.809 402.973C104.691 403.167 105.602 403.277 106.54 403.277H188.56C195.584 403.277 201.333 397.521 201.333 390.484C201.333 383.448 195.584 377.691 188.56 377.691Z" fill="#06FFB3"/>
<path d="M134.468 386.204H104.395C103.63 386.204 103.005 385.578 103.005 384.812C103.005 384.047 103.63 383.42 104.395 383.42H134.468C135.232 383.42 135.858 384.047 135.858 384.812C135.858 385.578 135.232 386.204 134.468 386.204Z" fill="#06B57F"/>
<path d="M146.255 386.204H139.15C138.386 386.204 137.761 385.578 137.761 384.812C137.761 384.047 138.386 383.42 139.15 383.42H146.255C147.019 383.42 147.645 384.047 147.645 384.812C147.643 385.578 147.019 386.204 146.255 386.204Z" fill="#06B57F"/>
<path d="M135.858 397.009H104.395C103.63 397.009 103.005 396.383 103.005 395.617C103.005 394.852 103.63 394.225 104.395 394.225H135.858C136.622 394.225 137.248 394.852 137.248 395.617C137.248 396.383 136.622 397.009 135.858 397.009Z" fill="#06B57F"/>
<path d="M111.5 391.343H104.396C103.632 391.343 103.006 390.716 103.006 389.951C103.006 389.186 103.632 388.559 104.396 388.559H111.5C112.265 388.559 112.89 389.186 112.89 389.951C112.889 390.717 112.263 391.343 111.5 391.343Z" fill="#06B57F"/>
<path d="M158.512 386.204H151.408C150.644 386.204 150.018 385.578 150.018 384.812C150.018 384.047 150.644 383.42 151.408 383.42H158.512C159.277 383.42 159.902 384.047 159.902 384.812C159.902 385.578 159.277 386.204 158.512 386.204Z" fill="#06B57F"/>
<path d="M158.512 397.009H151.408C150.644 397.009 150.018 396.383 150.018 395.617C150.018 394.852 150.644 394.225 151.408 394.225H158.512C159.277 394.225 159.902 394.852 159.902 395.617C159.902 396.383 159.277 397.009 158.512 397.009Z" fill="#06B57F"/>
<path d="M188.613 391.343H154.187C153.423 391.343 152.798 390.716 152.798 389.951C152.798 389.186 153.423 388.559 154.187 388.559H188.613C189.378 388.559 190.003 389.186 190.003 389.951C190.002 390.717 189.378 391.343 188.613 391.343Z" fill="#06B57F"/>
<path d="M146.867 391.343H120.821C120.057 391.343 119.431 390.716 119.431 389.951C119.431 389.186 120.057 388.559 120.821 388.559H146.867C147.631 388.559 148.256 389.186 148.256 389.951C148.256 390.717 147.631 391.343 146.867 391.343Z" fill="#06B57F"/>
<path d="M179.152 386.204H163.667C162.902 386.204 162.277 385.578 162.277 384.812C162.277 384.047 162.902 383.42 163.667 383.42H179.152C179.916 383.42 180.541 384.047 180.541 384.812C180.54 385.578 179.916 386.204 179.152 386.204Z" fill="#06B57F"/>
<path d="M188.613 386.204H186.451C185.687 386.204 185.061 385.578 185.061 384.812C185.061 384.047 185.687 383.42 186.451 383.42H188.613C189.378 383.42 190.003 384.047 190.003 384.812C190.002 385.578 189.378 386.204 188.613 386.204Z" fill="#06B57F"/>
<path d="M145.319 397.009H143.156C142.392 397.009 141.766 396.383 141.766 395.617C141.766 394.852 142.392 394.225 143.156 394.225H145.319C146.083 394.225 146.708 394.852 146.708 395.617C146.707 396.383 146.083 397.009 145.319 397.009Z" fill="#06B57F"/>
<path d="M97.4767 399.839L97.4737 399.835V399.838L97.4767 399.839Z" fill="#5CFFF3"/>
<path d="M188.56 377.691H106.54C99.5151 377.691 93.7666 383.448 93.7666 390.485C93.7666 390.547 93.7754 390.607 93.7754 390.669C93.8752 383.717 99.5751 378.059 106.538 378.059H188.558C195.522 378.059 201.222 383.717 201.322 390.669C201.323 390.607 201.33 390.547 201.33 390.485C201.333 383.448 195.584 377.691 188.56 377.691Z" fill="#5CFFF3"/>
<path d="M205.89 408.158H247.604C254.629 408.158 260.378 413.914 260.378 420.952C260.378 424.447 258.957 427.626 256.667 429.941L256.67 429.939V439.785L250.335 433.44C249.454 433.634 248.542 433.744 247.604 433.744H205.89C198.866 433.744 193.117 427.987 193.117 420.95C193.117 413.915 198.866 408.158 205.89 408.158Z" fill="#06FFB3"/>
<path d="M207.496 417.057H200.391C199.627 417.057 199.002 416.431 199.002 415.665C199.002 414.9 199.627 414.273 200.391 414.273H207.496C208.26 414.273 208.886 414.9 208.886 415.665C208.884 416.432 208.26 417.057 207.496 417.057Z" fill="#06B57F"/>
<path d="M219.753 417.057H212.649C211.885 417.057 211.259 416.431 211.259 415.665C211.259 414.9 211.885 414.273 212.649 414.273H219.753C220.517 414.273 221.143 414.9 221.143 415.665C221.143 416.432 220.517 417.057 219.753 417.057Z" fill="#06B57F"/>
<path d="M219.753 427.862H212.649C211.885 427.862 211.259 427.236 211.259 426.47C211.259 425.705 211.885 425.078 212.649 425.078H219.753C220.517 425.078 221.143 425.705 221.143 426.47C221.143 427.236 220.517 427.862 219.753 427.862Z" fill="#06B57F"/>
<path d="M249.854 422.197H215.428C214.664 422.197 214.039 421.571 214.039 420.805C214.039 420.04 214.664 419.413 215.428 419.413H249.854C250.619 419.413 251.244 420.04 251.244 420.805C251.243 421.571 250.619 422.197 249.854 422.197Z" fill="#06B57F"/>
<path d="M208.108 422.197H200.175C199.411 422.197 198.786 421.571 198.786 420.805C198.786 420.04 199.411 419.413 200.175 419.413H208.108C208.872 419.413 209.497 420.04 209.497 420.805C209.497 421.571 208.872 422.197 208.108 422.197Z" fill="#06B57F"/>
<path d="M240.393 417.057H224.908C224.143 417.057 223.518 416.431 223.518 415.665C223.518 414.9 224.143 414.273 224.908 414.273H240.393C241.157 414.273 241.782 414.9 241.782 415.665C241.781 416.432 241.157 417.057 240.393 417.057Z" fill="#06B57F"/>
<path d="M249.854 417.057H247.692C246.928 417.057 246.302 416.431 246.302 415.665C246.302 414.9 246.928 414.273 247.692 414.273H249.854C250.619 414.273 251.244 414.9 251.244 415.665C251.243 416.432 250.619 417.057 249.854 417.057Z" fill="#06B57F"/>
<path d="M206.559 427.862H204.397C203.633 427.862 203.007 427.236 203.007 426.47C203.007 425.705 203.633 425.078 204.397 425.078H206.559C207.324 425.078 207.949 425.705 207.949 426.47C207.948 427.236 207.324 427.862 206.559 427.862Z" fill="#06B57F"/>
<path d="M256.667 430.174L256.67 430.173V430.17L256.667 430.174Z" fill="#5CFFF3"/>
<path d="M247.604 408.158H205.89C198.866 408.158 193.117 413.914 193.117 420.952C193.117 420.992 193.122 421.029 193.123 421.069C193.187 414.087 198.904 408.393 205.89 408.393H247.604C254.59 408.393 260.308 414.087 260.371 421.069C260.371 421.029 260.378 420.992 260.378 420.952C260.376 413.914 254.629 408.158 247.604 408.158Z" fill="#5CFFF3"/>
<path d="M212.493 442.827H109.111C102.086 442.827 96.3375 448.583 96.3375 455.62C96.3375 459.115 97.7584 462.294 100.048 464.609L100.045 464.608V474.454L106.38 468.108C107.261 468.302 108.173 468.412 109.111 468.412H212.493C219.517 468.412 225.266 462.656 225.266 455.619C225.265 448.584 219.517 442.827 212.493 442.827Z" fill="#06FFB3"/>
<path d="M174.177 451.852H103.808C103.044 451.852 102.418 451.226 102.418 450.46C102.418 449.695 103.044 449.068 103.808 449.068H174.177C174.941 449.068 175.567 449.695 175.567 450.46C175.567 451.226 174.941 451.852 174.177 451.852Z" fill="#06B57F"/>
<path d="M186.436 451.852H179.331C178.567 451.852 177.942 451.226 177.942 450.46C177.942 449.695 178.567 449.068 179.331 449.068H186.436C187.2 449.068 187.826 449.695 187.826 450.46C187.824 451.226 187.2 451.852 186.436 451.852Z" fill="#06B57F"/>
<path d="M202.312 462.656H179.33C178.566 462.656 177.94 462.029 177.94 461.264C177.94 460.499 178.566 459.872 179.33 459.872H202.312C203.076 459.872 203.701 460.499 203.701 461.264C203.701 462.029 203.076 462.656 202.312 462.656Z" fill="#06B57F"/>
<path d="M216.536 456.991H182.11C181.345 456.991 180.72 456.364 180.72 455.599C180.72 454.834 181.345 454.207 182.11 454.207H216.536C217.3 454.207 217.925 454.834 217.925 455.599C217.925 456.364 217.3 456.991 216.536 456.991Z" fill="#06B57F"/>
<path d="M174.79 456.991H103.593C102.829 456.991 102.203 456.364 102.203 455.599C102.203 454.834 102.829 454.207 103.593 454.207H174.79C175.554 454.207 176.18 454.834 176.18 455.599C176.179 456.364 175.554 456.991 174.79 456.991Z" fill="#06B57F"/>
<path d="M207.074 451.852H191.589C190.825 451.852 190.199 451.226 190.199 450.46C190.199 449.695 190.825 449.068 191.589 449.068H207.074C207.838 449.068 208.464 449.695 208.464 450.46C208.464 451.226 207.838 451.852 207.074 451.852Z" fill="#06B57F"/>
<path d="M216.536 451.852H214.373C213.609 451.852 212.983 451.226 212.983 450.46C212.983 449.695 213.609 449.068 214.373 449.068H216.536C217.3 449.068 217.925 449.695 217.925 450.46C217.925 451.226 217.3 451.852 216.536 451.852Z" fill="#06B57F"/>
<path d="M173.241 462.656H166.151C165.387 462.656 164.762 462.029 164.762 461.264C164.762 460.499 165.387 459.872 166.151 459.872H173.241C174.005 459.872 174.63 460.499 174.63 461.264C174.63 462.029 174.005 462.656 173.241 462.656Z" fill="#06B57F"/>
<path d="M216.528 462.656H209.439C208.675 462.656 208.049 462.029 208.049 461.264C208.049 460.499 208.675 459.872 209.439 459.872H216.528C217.292 459.872 217.918 460.499 217.918 461.264C217.918 462.029 217.292 462.656 216.528 462.656Z" fill="#06B57F"/>
<path d="M100.047 465.091L100.043 465.088V465.091H100.047Z" fill="#5CFFF3"/>
<path d="M212.492 442.827H109.109C102.085 442.827 96.3362 448.583 96.3362 455.62C96.3362 455.701 96.3474 455.781 96.3487 455.863C96.4798 448.938 102.166 443.311 109.109 443.311H212.492C219.435 443.311 225.121 448.937 225.252 455.861C225.253 455.78 225.265 455.701 225.265 455.62C225.265 448.584 219.517 442.827 212.492 442.827Z" fill="#5CFFF3"/>
<path d="M245.291 489.668C247.044 489.668 248.465 489.083 248.465 488.36C248.465 487.638 247.044 487.052 245.291 487.052C243.538 487.052 242.117 487.638 242.117 488.36C242.117 489.083 243.538 489.668 245.291 489.668Z" fill="#0626BE"/>
<path d="M259.308 473.632C259.308 469.22 255.737 465.642 251.331 465.642C249.018 465.642 246.94 466.635 245.483 468.211C244.026 466.634 241.948 465.642 239.635 465.642C235.23 465.642 231.659 469.219 231.659 473.632C231.659 476.161 232.835 478.412 234.665 479.875V479.876L234.679 479.885C235.157 480.267 235.682 480.591 236.241 480.854L245.483 486.587L254.725 480.854C255.285 480.591 255.809 480.267 256.287 479.885L256.301 479.876V479.875C258.131 478.411 259.308 476.161 259.308 473.632Z" fill="#FF2757"/>
<path d="M239.633 466.135C241.947 466.135 244.025 467.128 245.482 468.703C246.939 467.126 249.017 466.135 251.33 466.135C255.647 466.135 259.154 469.571 259.294 473.861C259.296 473.783 259.307 473.71 259.307 473.632C259.307 469.22 255.737 465.643 251.331 465.643C249.018 465.643 246.94 466.636 245.483 468.212C244.026 466.636 241.948 465.643 239.635 465.643C235.23 465.643 231.659 469.22 231.659 473.632C231.659 473.71 231.67 473.785 231.672 473.861C231.81 469.571 235.317 466.135 239.633 466.135Z" fill="#FF6081"/>
<path d="M255.272 463.503C256.425 463.503 257.36 463.117 257.36 462.642C257.36 462.167 256.425 461.782 255.272 461.782C254.119 461.782 253.184 462.167 253.184 462.642C253.184 463.117 254.119 463.503 255.272 463.503Z" fill="#0626BE"/>
<path d="M264.494 452.951C264.494 450.049 262.144 447.695 259.246 447.695C257.724 447.695 256.357 448.348 255.398 449.386C254.439 448.349 253.073 447.695 251.55 447.695C248.652 447.695 246.302 450.049 246.302 452.951C246.302 454.615 247.076 456.095 248.281 457.058V457.06L248.29 457.066C248.605 457.317 248.95 457.53 249.318 457.704L255.398 461.475L261.479 457.704C261.847 457.53 262.192 457.317 262.506 457.066L262.515 457.06V457.058C263.72 456.097 264.494 454.616 264.494 452.951Z" fill="#FF2757"/>
<path d="M251.55 448.019C253.072 448.019 254.439 448.672 255.398 449.71C256.357 448.673 257.723 448.019 259.246 448.019C262.087 448.019 264.394 450.28 264.485 453.103C264.487 453.053 264.494 453.003 264.494 452.951C264.494 450.049 262.144 447.695 259.246 447.695C257.724 447.695 256.357 448.348 255.398 449.386C254.439 448.349 253.073 447.695 251.55 447.695C248.652 447.695 246.302 450.049 246.302 452.951C246.302 453.003 246.31 453.051 246.311 453.103C246.402 450.28 248.709 448.019 251.55 448.019Z" fill="#FF6081"/>
<path d="M240.885 450.396C241.643 450.396 242.258 450.143 242.258 449.83C242.258 449.517 241.643 449.263 240.885 449.263C240.126 449.263 239.511 449.517 239.511 449.83C239.511 450.143 240.126 450.396 240.885 450.396Z" fill="#0626BE"/>
<path d="M246.951 443.453C246.951 441.544 245.406 439.994 243.499 439.994C242.498 439.994 241.599 440.424 240.967 441.106C240.336 440.423 239.437 439.994 238.435 439.994C236.528 439.994 234.982 441.542 234.982 443.453C234.982 444.547 235.492 445.522 236.283 446.156L236.29 446.159C236.497 446.325 236.724 446.465 236.966 446.578L240.967 449.06L244.967 446.578C245.21 446.465 245.437 446.325 245.644 446.159L245.65 446.156C246.443 445.523 246.951 444.549 246.951 443.453Z" fill="#FF2757"/>
<path d="M238.436 440.208C239.438 440.208 240.337 440.638 240.968 441.32C241.599 440.637 242.498 440.208 243.501 440.208C245.37 440.208 246.887 441.696 246.948 443.552C246.949 443.518 246.954 443.487 246.954 443.453C246.954 441.544 245.408 439.995 243.502 439.995C242.5 439.995 241.601 440.426 240.97 441.107C240.339 440.424 239.44 439.995 238.437 439.995C236.531 439.995 234.985 441.544 234.985 443.453C234.985 443.487 234.99 443.52 234.991 443.552C235.049 441.696 236.567 440.208 238.436 440.208Z" fill="#FF6081"/>
<path d="M251.21 444.901C251.513 444.901 251.759 444.8 251.759 444.675C251.759 444.55 251.513 444.449 251.21 444.449C250.908 444.449 250.662 444.55 250.662 444.675C250.662 444.8 250.908 444.901 251.21 444.901Z" fill="#0626BE"/>
<path d="M253.63 442.132C253.63 441.371 253.013 440.753 252.253 440.753C251.853 440.753 251.495 440.924 251.244 441.197C250.993 440.924 250.633 440.753 250.235 440.753C249.475 440.753 248.858 441.371 248.858 442.132C248.858 442.569 249.061 442.958 249.377 443.21L249.38 443.212C249.462 443.278 249.553 443.333 249.649 443.379L251.245 444.368L252.841 443.379C252.937 443.334 253.028 443.278 253.11 443.212L253.113 443.21C253.426 442.958 253.63 442.569 253.63 442.132Z" fill="#FF2757"/>
<path d="M250.234 440.838C250.634 440.838 250.992 441.01 251.243 441.282C251.494 441.01 251.853 440.838 252.252 440.838C252.997 440.838 253.603 441.431 253.626 442.171C253.626 442.158 253.629 442.145 253.629 442.131C253.629 441.37 253.012 440.752 252.252 440.752C251.852 440.752 251.494 440.923 251.243 441.196C250.992 440.923 250.632 440.752 250.234 440.752C249.474 440.752 248.857 441.37 248.857 442.131C248.857 442.145 248.859 442.158 248.859 442.171C248.883 441.432 249.489 440.838 250.234 440.838Z" fill="#FF6081"/>
<path d="M183.906 164.806V189.461C183.906 194.454 179.828 198.538 174.844 198.538C169.86 198.538 165.782 194.454 165.782 189.461V164.806C165.782 159.814 169.86 155.729 174.844 155.729C179.828 155.731 183.906 159.815 183.906 164.806Z" fill="#0691A7"/>
<path d="M174.844 83.6596C180.949 83.6596 185.898 78.7028 185.898 72.5882C185.898 66.4737 180.949 61.5168 174.844 61.5168C168.739 61.5168 163.79 66.4737 163.79 72.5882C163.79 78.7028 168.739 83.6596 174.844 83.6596Z" fill="#06FFE5"/>
<path d="M174.844 62.3785C180.804 62.3785 185.648 67.1057 185.877 73.0197C185.882 72.8759 185.898 72.7346 185.898 72.5882C185.898 66.4729 180.948 61.5168 174.844 61.5168C168.738 61.5168 163.79 66.4742 163.79 72.5882C163.79 72.7333 163.806 72.8746 163.811 73.0197C164.04 67.1057 168.884 62.3785 174.844 62.3785Z" fill="#8DFFFF"/>
<path d="M174.844 103.254C173.127 103.254 171.722 101.847 171.722 100.127V84.9491C171.722 83.2295 173.127 81.8226 174.844 81.8226C176.561 81.8226 177.965 83.2295 177.965 84.9491V100.127C177.965 101.847 176.561 103.254 174.844 103.254Z" fill="#E4F6FF"/>
<path d="M189.173 100.347H161.267C158.751 100.347 156.692 98.2853 156.692 95.7654C156.692 93.2454 158.751 91.1832 161.267 91.1832H189.173C191.689 91.1832 193.748 93.2454 193.748 95.7654C193.748 98.2853 191.689 100.347 189.173 100.347Z" fill="#519CE2"/>
<path d="M198.415 166.137H123.739C108.62 166.137 96.2488 153.747 96.2488 138.603C96.2488 123.459 108.619 111.069 123.739 111.069H198.415C213.534 111.069 225.905 123.458 225.905 138.603C225.905 153.747 213.535 166.137 198.415 166.137Z" fill="#06FFE5"/>
<path d="M97.1053 138.604C97.1053 123.461 109.475 111.07 124.596 111.07H123.74C108.621 111.07 96.2501 123.459 96.2501 138.604C96.2501 153.747 108.62 166.138 123.74 166.138H124.596C109.475 166.137 97.1053 153.747 97.1053 138.604Z" fill="#90FFFF"/>
<path d="M223.268 166.137H148.592C133.473 166.137 121.102 153.747 121.102 138.603C121.102 123.459 133.472 111.069 148.592 111.069H223.268C238.387 111.069 250.758 123.458 250.758 138.603C250.757 153.747 238.387 166.137 223.268 166.137Z" fill="#06FFE5"/>
<path d="M223.268 111.07H222.443C237.562 111.07 249.933 123.459 249.933 138.604C249.933 153.747 237.563 166.138 222.443 166.138H223.268C238.387 166.138 250.758 153.749 250.758 138.604C250.757 123.461 238.387 111.07 223.268 111.07Z" fill="#8AFFFF"/>
<path d="M212.06 181.758H137.63C120.972 181.758 107.344 168.108 107.344 151.424V125.786C107.344 109.102 120.972 95.4514 137.63 95.4514H212.06C228.717 95.4514 242.345 109.102 242.345 125.786V151.424C242.345 168.106 228.717 181.758 212.06 181.758Z" fill="#E4F6FF"/>
<path d="M212.06 181.758H137.63C120.972 181.758 107.344 168.108 107.344 151.424V125.786C107.344 109.102 120.972 95.4514 137.63 95.4514H212.06C228.717 95.4514 242.345 109.102 242.345 125.786V151.424C242.345 168.106 228.717 181.758 212.06 181.758Z" fill="#E4F6FF"/>
<path d="M220.108 152.407H205.924C204.838 152.407 203.954 153.375 203.954 154.565C203.954 155.756 204.838 156.722 205.924 156.722H220.108C221.195 156.722 222.079 155.754 222.079 154.565C222.079 153.375 221.195 152.407 220.108 152.407Z" fill="white"/>
<path d="M220.108 152.407H205.924C204.838 152.407 203.954 153.292 203.954 154.381C203.954 155.471 204.838 156.356 205.924 156.356H220.108C221.195 156.356 222.079 155.471 222.079 154.381C222.079 153.292 221.195 152.407 220.108 152.407Z" fill="#CBDDF4"/>
<path d="M220.108 155.731H205.924C205.184 155.731 204.577 155.123 204.577 154.381C204.577 153.64 205.184 153.032 205.924 153.032H220.108C220.848 153.032 221.455 153.64 221.455 154.381C221.455 155.123 220.848 155.731 220.108 155.731Z" fill="#06FFFF"/>
<path d="M214.525 158.179H205.923C204.836 158.179 203.952 159.147 203.952 160.338C203.952 161.528 204.836 162.495 205.923 162.495H214.525C215.613 162.495 216.497 161.527 216.497 160.338C216.497 159.147 215.613 158.179 214.525 158.179Z" fill="white"/>
<path d="M214.525 158.179H205.923C204.836 158.179 203.952 159.065 203.952 160.154C203.952 161.243 204.836 162.129 205.923 162.129H214.525C215.613 162.129 216.497 161.243 216.497 160.154C216.497 159.065 215.613 158.179 214.525 158.179Z" fill="#CBDDF4"/>
<path d="M214.525 161.503H205.923C205.182 161.503 204.575 160.896 204.575 160.154C204.575 159.412 205.182 158.805 205.923 158.805H214.525C215.266 158.805 215.873 159.412 215.873 160.154C215.873 160.896 215.267 161.503 214.525 161.503Z" fill="#02A1E2"/>
<path d="M242.345 146.259C238.391 157.618 227.596 165.793 214.923 165.793H134.765C122.092 165.793 111.297 157.617 107.343 146.258V151.424C107.343 151.723 107.356 152.019 107.365 152.315C112.799 161.849 123.041 168.294 134.764 168.294H214.921C226.644 168.294 236.887 161.85 242.322 152.315C242.33 152.018 242.344 151.721 242.344 151.422V146.259H242.345Z" fill="white"/>
<path d="M134.767 167.669H214.924C226.835 167.669 237.187 160.882 242.347 150.971V148.022C237.894 158.807 227.282 166.418 214.924 166.418H134.767C122.408 166.418 111.796 158.807 107.344 148.021V150.97C112.503 160.882 122.855 167.669 134.767 167.669Z" fill="#BFDAFF"/>
<path d="M204.431 100.347H145.259C131.604 100.347 120.495 111.698 120.495 125.649C120.495 139.601 131.604 150.951 145.259 150.951H204.431C218.085 150.951 229.194 139.601 229.194 125.649C229.194 111.698 218.084 100.347 204.431 100.347Z" fill="white"/>
<path d="M204.431 100.347H145.259C131.604 100.347 120.495 111.474 120.495 125.15C120.495 138.827 131.604 149.953 145.259 149.953H204.431C218.085 149.953 229.194 138.827 229.194 125.15C229.194 111.474 218.084 100.347 204.431 100.347Z" fill="#ADD9F5"/>
<path d="M204.431 146.827H145.259C133.356 146.827 123.617 137.072 123.617 125.15C123.617 113.228 133.356 103.474 145.259 103.474H204.431C216.333 103.474 226.072 113.228 226.072 125.15C226.072 137.072 216.333 146.827 204.431 146.827Z" fill="#130E20"/>
<path d="M153.538 121.097C156.643 121.097 159.16 118.576 159.16 115.466C159.16 112.356 156.643 109.834 153.538 109.834C150.433 109.834 147.916 112.356 147.916 115.466C147.916 118.576 150.433 121.097 153.538 121.097Z" fill="#06FFB3"/>
<path d="M153.538 110.213C156.578 110.213 159.039 112.634 159.14 115.655C159.143 115.59 159.159 115.53 159.159 115.464C159.159 112.354 156.642 109.833 153.537 109.833C150.431 109.833 147.914 112.354 147.914 115.464C147.914 115.53 147.932 115.59 147.933 115.655C148.037 112.634 150.498 110.213 153.538 110.213Z" fill="#6CFFFF"/>
<path d="M195.313 121.097C198.419 121.097 200.936 118.576 200.936 115.466C200.936 112.356 198.419 109.834 195.313 109.834C192.208 109.834 189.691 112.356 189.691 115.466C189.691 118.576 192.208 121.097 195.313 121.097Z" fill="#06FFB3"/>
<path d="M195.313 110.096C198.374 110.096 200.851 112.548 200.922 115.596C200.923 115.551 200.936 115.51 200.936 115.464C200.936 112.354 198.419 109.833 195.313 109.833C192.208 109.833 189.691 112.354 189.691 115.464C189.691 115.51 189.703 115.551 189.705 115.596C189.776 112.548 192.253 110.096 195.313 110.096Z" fill="#06FFE5"/>
<path d="M180.842 130.123C180.842 133.233 178.325 135.754 175.22 135.754C172.115 135.754 169.597 133.233 169.597 130.123H180.842Z" fill="#06FFB3"/>
<g opacity="0.1">
<path d="M149.74 103.474L124.016 129.238C125.94 139.222 134.75 146.828 145.257 146.828H146.103L189.386 103.475L149.74 103.474Z" fill="white"/>
<path d="M210.441 104.347C208.53 103.789 206.516 103.474 204.431 103.474H198.596L155.312 146.827H168.029L210.441 104.347Z" fill="white"/>
<path d="M223.223 114.465C222.628 113.421 221.956 112.425 221.202 111.498L185.93 146.825H190.915L223.223 114.465Z" fill="white"/>
</g>
<path d="M187.153 202.057H162.537C157.552 202.057 153.474 197.973 153.474 192.981C153.474 187.988 157.552 183.904 162.537 183.904H187.153C192.137 183.904 196.215 187.988 196.215 192.981C196.215 197.973 192.137 202.057 187.153 202.057Z" fill="#06FFE5"/>
<path d="M162.537 184.166H187.153C192.092 184.166 196.136 188.181 196.207 193.112C196.207 193.068 196.214 193.026 196.214 192.982C196.214 187.989 192.136 183.905 187.151 183.905H162.535C157.551 183.905 153.473 187.989 153.473 192.982C153.473 193.026 153.479 193.068 153.479 193.112C153.552 188.18 157.596 184.166 162.537 184.166Z" fill="#8DFFFF"/>
<path d="M192.68 215.21H157.008C149.786 215.21 143.876 209.291 143.876 202.057C143.876 194.824 149.786 188.905 157.008 188.905H192.68C199.902 188.905 205.812 194.824 205.812 202.057C205.812 209.292 199.903 215.21 192.68 215.21Z" fill="#06DAAB"/>
<mask id="mask11_9_1089" style="mask-type:luminance" maskUnits="userSpaceOnUse" x="54" y="66" width="241" height="242">
<path d="M174.844 307.12C241.061 307.12 294.741 253.354 294.741 187.031C294.741 120.708 241.061 66.9431 174.844 66.9431C108.627 66.9431 54.9466 120.708 54.9466 187.031C54.9466 253.354 108.627 307.12 174.844 307.12Z" fill="white"/>
</mask>
<g mask="url(#mask11_9_1089)">
<path d="M116.401 213.225C116.401 213.225 87.2652 246.949 88.9758 308.12" stroke="#D8EBFF" stroke-width="17" stroke-miterlimit="10" stroke-linecap="round" stroke-linejoin="round"/>
</g>
<mask id="mask12_9_1089" style="mask-type:luminance" maskUnits="userSpaceOnUse" x="54" y="66" width="241" height="242">
<path d="M174.844 307.12C241.061 307.12 294.741 253.354 294.741 187.031C294.741 120.708 241.061 66.9431 174.844 66.9431C108.627 66.9431 54.9466 120.708 54.9466 187.031C54.9466 253.354 108.627 307.12 174.844 307.12Z" fill="white"/>
</mask>
<g mask="url(#mask12_9_1089)">
<path d="M234.715 213.225C234.715 213.225 263.851 246.949 262.141 308.12" stroke="#D8EBFF" stroke-width="17" stroke-miterlimit="10" stroke-linecap="round" stroke-linejoin="round"/>
</g>
<mask id="mask13_9_1089" style="mask-type:luminance" maskUnits="userSpaceOnUse" x="54" y="66" width="241" height="242">
<path d="M174.844 307.12C241.061 307.12 294.741 253.354 294.741 187.031C294.741 120.708 241.061 66.9431 174.844 66.9431C108.627 66.9431 54.9466 120.708 54.9466 187.031C54.9466 253.354 108.627 307.12 174.844 307.12Z" fill="white"/>
</mask>
<g mask="url(#mask13_9_1089)">
<path d="M212.021 251.035H137.345C122.226 251.035 109.855 238.645 109.855 223.501C109.855 208.358 122.225 195.967 137.345 195.967H212.021C227.14 195.967 239.511 208.356 239.511 223.501C239.511 238.644 227.14 251.035 212.021 251.035Z" fill="#06FFE5"/>
</g>
<mask id="mask14_9_1089" style="mask-type:luminance" maskUnits="userSpaceOnUse" x="54" y="66" width="241" height="242">
<path d="M174.844 307.12C241.061 307.12 294.741 253.354 294.741 187.031C294.741 120.708 241.061 66.9431 174.844 66.9431C108.627 66.9431 54.9466 120.708 54.9466 187.031C54.9466 253.354 108.627 307.12 174.844 307.12Z" fill="white"/>
</mask>
<g mask="url(#mask14_9_1089)">
<path d="M230.747 243.608C227.375 246.762 223.217 249.08 218.608 250.226C215.829 249.025 214.313 246.735 214.313 246.735L212.995 234.07L218.904 209.813C218.904 209.813 228.469 218.302 230.747 243.608Z" fill="#06D1CE"/>
</g>
<mask id="mask15_9_1089" style="mask-type:luminance" maskUnits="userSpaceOnUse" x="54" y="66" width="241" height="242">
<path d="M174.844 307.12C241.061 307.12 294.741 253.354 294.741 187.031C294.741 120.708 241.061 66.9431 174.844 66.9431C108.627 66.9431 54.9466 120.708 54.9466 187.031C54.9466 253.354 108.627 307.12 174.844 307.12Z" fill="white"/>
</mask>
<g mask="url(#mask15_9_1089)">
<path d="M118.622 243.608C121.995 246.762 126.153 249.08 130.761 250.226C133.541 249.025 135.056 246.735 135.056 246.735L136.375 234.07L130.465 209.813C130.465 209.813 120.901 218.302 118.622 243.608Z" fill="#06D1CE"/>
</g>
<mask id="mask16_9_1089" style="mask-type:luminance" maskUnits="userSpaceOnUse" x="54" y="66" width="241" height="242">
<path d="M174.844 307.12C241.061 307.12 294.741 253.354 294.741 187.031C294.741 120.708 241.061 66.9431 174.844 66.9431C108.627 66.9431 54.9466 120.708 54.9466 187.031C54.9466 253.354 108.627 307.12 174.844 307.12Z" fill="white"/>
</mask>
<g mask="url(#mask16_9_1089)">
<path d="M124.753 314.154V229.25C124.753 209.367 140.995 193.099 160.846 193.099H188.843C208.695 193.099 224.936 209.367 224.936 229.25V314.154C224.936 334.037 208.695 350.305 188.843 350.305H160.846C140.995 350.305 124.753 334.037 124.753 314.154Z" fill="#D8EBFF"/>
</g>
<mask id="mask17_9_1089" style="mask-type:luminance" maskUnits="userSpaceOnUse" x="54" y="66" width="241" height="242">
<path d="M174.844 307.12C241.061 307.12 294.741 253.354 294.741 187.031C294.741 120.708 241.061 66.9431 174.844 66.9431C108.627 66.9431 54.9466 120.708 54.9466 187.031C54.9466 253.354 108.627 307.12 174.844 307.12Z" fill="white"/>
</mask>
<g mask="url(#mask17_9_1089)">
<path d="M224.936 281.545C183.195 324.817 141.944 298.88 124.753 284.173V314.154C124.753 319.738 126.034 325.036 128.316 329.769L174.486 335.427L215.874 332.199L222.427 327.338C224.04 323.247 224.936 318.803 224.936 314.156V281.545Z" fill="#B3C0F1"/>
</g>
<mask id="mask18_9_1089" style="mask-type:luminance" maskUnits="userSpaceOnUse" x="54" y="66" width="241" height="242">
<path d="M174.844 307.12C241.061 307.12 294.741 253.354 294.741 187.031C294.741 120.708 241.061 66.9431 174.844 66.9431C108.627 66.9431 54.9466 120.708 54.9466 187.031C54.9466 253.354 108.627 307.12 174.844 307.12Z" fill="white"/>
</mask>
<g mask="url(#mask18_9_1089)">
<path d="M188.843 193.099H160.846C140.995 193.099 124.753 209.367 124.753 229.25V232.119C124.753 212.236 140.995 195.968 160.846 195.968H188.843C208.695 195.968 224.936 212.236 224.936 232.119V229.25C224.936 209.367 208.695 193.099 188.843 193.099Z" fill="white"/>
</g>
<path d="M194.376 213.225H155.312C145.33 213.225 137.208 221.36 137.208 231.358V246.679C137.208 256.678 145.33 264.813 155.312 264.813H194.376C204.358 264.813 212.48 256.678 212.48 246.679V231.358C212.48 221.36 204.358 213.225 194.376 213.225Z" fill="#B1C7F6"/>
<path d="M194.377 261.687H155.313C147.073 261.687 140.33 254.934 140.33 246.68V231.358C140.33 223.104 147.073 216.351 155.313 216.351H194.377C202.618 216.351 209.36 223.104 209.36 231.358V246.68C209.36 254.934 202.618 261.687 194.377 261.687Z" fill="#02A1E2"/>
<path d="M194.377 216.351H155.313C147.073 216.351 140.33 223.104 140.33 231.358V232.24C140.33 223.986 147.073 217.233 155.313 217.233H194.377C202.618 217.233 209.36 223.986 209.36 232.24V231.358C209.36 223.104 202.618 216.351 194.377 216.351Z" fill="#02CBF1"/>
<path d="M167.264 221.531C167.436 221.209 167.727 220.983 168.135 220.854C168.544 220.725 169.06 220.661 169.683 220.661C170.307 220.661 170.802 220.714 171.167 220.822C171.533 220.929 171.812 221.058 172.006 221.209C172.199 221.359 172.35 221.574 172.458 221.854C172.565 222.22 172.619 222.779 172.619 223.531V241.434C172.619 241.928 172.597 242.304 172.554 242.562C172.533 242.799 172.436 243.079 172.264 243.401C171.963 243.982 171.124 244.272 169.748 244.272C168.243 244.272 167.361 243.874 167.103 243.079C166.974 242.713 166.909 242.154 166.909 241.401V234.853H158.362V241.434C158.362 241.928 158.34 242.304 158.297 242.562C158.276 242.799 158.179 243.079 158.007 243.401C157.706 243.982 156.867 244.272 155.491 244.272C153.985 244.272 153.104 243.874 152.846 243.079C152.717 242.713 152.652 242.154 152.652 241.401V223.499C152.652 223.004 152.663 222.639 152.684 222.402C152.727 222.144 152.835 221.854 153.007 221.531C153.308 220.951 154.147 220.661 155.523 220.661C157.028 220.661 157.921 221.058 158.2 221.854C158.308 222.22 158.362 222.779 158.362 223.531V230.112H166.909V223.499C166.909 223.004 166.92 222.639 166.942 222.402C166.985 222.144 167.092 221.854 167.264 221.531ZM175.206 223.499C175.206 223.004 175.217 222.639 175.239 222.402C175.282 222.144 175.389 221.854 175.561 221.531C175.862 220.951 176.701 220.661 178.077 220.661C179.582 220.661 180.475 221.058 180.754 221.854C180.862 222.22 180.916 222.779 180.916 223.531V241.466C180.916 241.982 180.894 242.358 180.851 242.595C180.83 242.831 180.733 243.111 180.561 243.433C180.26 244.014 179.421 244.304 178.045 244.304C176.54 244.304 175.658 243.896 175.4 243.079C175.271 242.735 175.206 242.186 175.206 241.434V223.499ZM183.813 239.401C184.029 238.971 184.351 238.681 184.781 238.53C185.233 238.38 185.921 238.305 186.846 238.305C187.792 238.305 188.469 238.509 188.878 238.918C189.308 239.326 189.523 239.971 189.523 240.853V241.369C189.523 241.885 189.501 242.272 189.458 242.53C189.437 242.767 189.34 243.057 189.168 243.401C188.824 244.025 187.996 244.337 186.684 244.337C185.394 244.337 184.534 244.132 184.104 243.724C183.695 243.294 183.491 242.476 183.491 241.272C183.491 240.434 183.598 239.81 183.813 239.401ZM188.136 235.627C187.727 235.735 187.179 235.789 186.491 235.789C185.803 235.789 185.254 235.735 184.846 235.627C184.437 235.52 184.147 235.326 183.975 235.047C183.824 234.767 183.727 234.52 183.684 234.305C183.663 234.09 183.652 233.757 183.652 233.305V223.08C183.652 222.628 183.663 222.295 183.684 222.08C183.727 221.843 183.835 221.585 184.007 221.306C184.179 221.026 184.469 220.833 184.878 220.725C185.287 220.596 185.835 220.532 186.523 220.532C187.211 220.532 187.759 220.596 188.168 220.725C188.577 220.833 188.856 221.037 189.007 221.338C189.179 221.617 189.276 221.876 189.297 222.112C189.34 222.327 189.362 222.66 189.362 223.112V233.337C189.362 233.789 189.34 234.122 189.297 234.337C189.276 234.552 189.179 234.799 189.007 235.079C188.835 235.337 188.544 235.52 188.136 235.627Z" fill="#27FFBB"/>
<path d="M122.137 433.126H104.008V406.953C104.008 404.789 105.759 403.034 107.919 403.034H122.137V433.126Z" fill="#062393"/>
<path d="M107.893 403.033C105.747 403.033 104.008 404.775 104.008 406.925V407.283C104.008 405.133 105.747 403.391 107.893 403.391H122.137V403.033H107.893Z" fill="#0093FF"/>
<path d="M115.995 426.194C115.995 428.495 114.134 430.36 111.836 430.36C109.539 430.36 107.677 428.495 107.677 426.194C107.677 423.893 109.539 422.028 111.836 422.028C114.134 422.028 115.995 423.893 115.995 426.194Z" fill="#060E51"/>
<path d="M158.631 398.217H136.292L138.451 394.662C138.85 394.005 139.116 393.277 139.233 392.518L140.595 383.715C141.09 380.516 138.901 377.521 135.707 377.025C132.502 376.543 129.523 378.724 129.027 381.921L127.842 389.572L121.111 400.657C120.329 401.944 120.122 403.41 120.38 404.781V428.04C120.38 432.624 124.091 436.342 128.67 436.342H149.515C153.833 436.342 157.332 432.837 157.332 428.513V410.763H158.63C162.088 410.763 164.891 407.955 164.891 404.491C164.893 401.025 162.09 398.217 158.631 398.217Z" fill="#FFB88D"/>
<path d="M157.334 410.76H152.258L157.334 412.844V410.76Z" fill="#FF8A5E"/>
<path d="M121.112 401.277L127.843 390.192L129.028 382.542C129.524 379.346 132.503 377.166 135.708 377.646C138.445 378.073 140.43 380.336 140.635 382.989C140.72 380.076 138.657 377.484 135.708 377.025C132.503 376.545 129.524 378.724 129.028 381.921L127.843 389.572L121.112 400.657C120.475 401.705 120.237 402.869 120.303 404.007C120.347 403.071 120.591 402.134 121.112 401.277Z" fill="#FFD7B8"/>
<path d="M158.631 398.217H136.292L135.915 398.839H158.631C161.983 398.839 164.697 401.484 164.861 404.8C164.866 404.695 164.893 404.596 164.893 404.49C164.893 401.025 162.09 398.217 158.631 398.217Z" fill="#FFD7B8"/>
<path d="M122.535 364.286H110.266V346.827C110.266 345.223 111.564 343.921 113.167 343.921H122.535V364.286Z" fill="#062393"/>
<path d="M112.895 343.921C111.443 343.921 110.266 345.1 110.266 346.554V346.796C110.266 345.341 111.443 344.162 112.895 344.162H122.535V343.921H112.895Z" fill="#0093FF"/>
<path d="M118.379 359.594C118.379 361.151 117.119 362.413 115.565 362.413C114.01 362.413 112.75 361.151 112.75 359.594C112.75 358.037 114.01 356.775 115.565 356.775C117.119 356.775 118.379 358.037 118.379 359.594Z" fill="#060E51"/>
<path d="M147.234 340.66H132.116L133.577 338.254C133.846 337.81 134.026 337.318 134.106 336.804L135.029 330.846C135.363 328.681 133.883 326.654 131.721 326.317C129.553 325.992 127.536 327.467 127.2 329.63L126.399 334.808L121.844 342.31C121.314 343.182 121.174 344.172 121.349 345.101V360.842C121.349 363.945 123.861 366.461 126.959 366.461H141.067C143.989 366.461 146.359 364.089 146.359 361.161V349.148H147.236C149.576 349.148 151.474 347.247 151.474 344.904C151.472 342.561 149.574 340.66 147.234 340.66Z" fill="#FFB88D"/>
<path d="M146.356 349.149H142.921L146.356 350.56V349.149Z" fill="#FF8A5E"/>
<path d="M121.842 342.731L126.397 335.229L127.199 330.052C127.535 327.888 129.551 326.412 131.72 326.739C133.573 327.027 134.916 328.56 135.054 330.354C135.111 328.383 133.715 326.629 131.72 326.319C129.551 325.994 127.535 327.469 127.199 329.633L126.397 334.81L121.842 342.312C121.412 343.021 121.251 343.809 121.296 344.58C121.324 343.946 121.489 343.312 121.842 342.731Z" fill="#FFD7B8"/>
<path d="M147.234 340.66H132.116L131.86 341.081H147.234C149.503 341.081 151.339 342.87 151.45 345.115C151.454 345.044 151.472 344.976 151.472 344.905C151.472 342.561 149.574 340.66 147.234 340.66Z" fill="#FFD7B8"/>
<path d="M153.958 383.907H145.768V372.139C145.768 371.131 146.583 370.314 147.59 370.314H153.958V383.907Z" fill="#062393"/>
<path d="M147.524 370.314C146.555 370.314 145.768 371.101 145.768 372.073V372.234C145.768 371.263 146.553 370.476 147.524 370.476H153.958V370.314H147.524Z" fill="#0093FF"/>
<path d="M151.183 380.775C151.183 381.815 150.342 382.657 149.304 382.657C148.266 382.657 147.425 381.815 147.425 380.775C147.425 379.736 148.266 378.893 149.304 378.893C150.342 378.894 151.183 379.736 151.183 380.775Z" fill="#060E51"/>
<path d="M170.441 368.138H160.352L161.327 366.532C161.507 366.236 161.626 365.907 161.68 365.564L162.296 361.589C162.519 360.144 161.53 358.791 160.088 358.566C158.64 358.349 157.295 359.334 157.07 360.777L156.536 364.233L153.496 369.24C153.142 369.821 153.049 370.483 153.166 371.103V381.609C153.166 383.68 154.843 385.36 156.91 385.36H166.326C168.276 385.36 169.857 383.777 169.857 381.823V373.806H170.443C172.005 373.806 173.271 372.538 173.271 370.973C173.27 369.408 172.003 368.138 170.441 368.138Z" fill="#FFB88D"/>
<path d="M169.856 373.805H167.563L169.856 374.745V373.805Z" fill="#FF8A5E"/>
<path d="M153.494 369.521L156.535 364.514L157.069 361.059C157.294 359.614 158.638 358.63 160.087 358.848C161.323 359.04 162.219 360.063 162.312 361.261C162.351 359.946 161.419 358.775 160.087 358.567C158.638 358.35 157.294 359.335 157.069 360.778L156.535 364.234L153.494 369.241C153.207 369.715 153.1 370.24 153.13 370.754C153.148 370.33 153.26 369.908 153.494 369.521Z" fill="#FFD7B8"/>
<path d="M170.441 368.138H160.352L160.18 368.418H170.441C171.956 368.418 173.181 369.613 173.256 371.111C173.258 371.063 173.269 371.018 173.269 370.971C173.269 369.408 172.003 368.138 170.441 368.138Z" fill="#FFD7B8"/>
</g>
<defs>
<filter id="filter0_d_9_1089" x="-4" y="0" width="352" height="543" filterUnits="userSpaceOnUse" color-interpolation-filters="sRGB">
<feFlood flood-opacity="0" result="BackgroundImageFix"/>
<feColorMatrix in="SourceAlpha" type="matrix" values="0 0 0 0 0 0 0 0 0 0 0 0 0 0 0 0 0 0 127 0" result="hardAlpha"/>
<feOffset dy="15"/>
<feGaussianBlur stdDeviation="2"/>
<feComposite in2="hardAlpha" operator="out"/>
<feColorMatrix type="matrix" values="0 0 0 0 0 0 0 0 0 0 0 0 0 0 0 0 0 0 0.25 0"/>
<feBlend mode="normal" in2="BackgroundImageFix" result="effect1_dropShadow_9_1089"/>
<feBlend mode="normal" in="SourceGraphic" in2="effect1_dropShadow_9_1089" result="shape"/>
</filter>
<clipPath id="clip0_9_1089">
<rect width="344" height="524" fill="white"/>
</clipPath>
</defs>
</svg>
